HIERARCHY
ROOT hip
{
	OFFSET 0.000000 0.000000 0.000000 
	CHANNELS 6 Xposition Yposition Zposition Xrotation Zrotation Yrotation
	JOINT abdomen
	{
		OFFSET 0.000000 3.402643 0.000000 
		CHANNELS 3 Xrotation Zrotation Yrotation
		JOINT chest
		{
			OFFSET 0.000000 8.438565 -0.680529 
			CHANNELS 3 Xrotation Zrotation Yrotation
			JOINT neck
			{
				OFFSET 0.000000 10.207942 -0.272212 
				CHANNELS 3 Xrotation Zrotation Yrotation
				JOINT head
				{
					OFFSET 0.000000 3.130431 0.000000 
					CHANNELS 3 Xrotation Zrotation Yrotation
					End Site
					{
						OFFSET 0.000000 3.130435 0.000000 
					}
				}
			}
			JOINT lCollar
			{
				OFFSET 3.470700 6.669187 -0.816635 
				CHANNELS 3 Yrotation Zrotation Xrotation
				JOINT lShldr
				{
					OFFSET 3.198488 0.000000 0.000000 
					CHANNELS 3 Zrotation Yrotation Xrotation
					JOINT lForeArm
					{
						OFFSET 10.139888 0.000000 0.000000 
						CHANNELS 3 Yrotation Zrotation Xrotation
						JOINT lHand
						{
							OFFSET 8.370511 0.000000 0.000000 
							CHANNELS 3 Zrotation Yrotation Xrotation
							End Site
							{
								OFFSET 4.083176 0.000000 0.000000 
							}
						}
					}
				}
			}
			JOINT rCollar
			{
				OFFSET -3.470700 6.669187 -0.816635 
				CHANNELS 3 Yrotation Zrotation Xrotation
				JOINT rShldr
				{
					OFFSET -3.198488 0.000000 0.000000 
					CHANNELS 3 Zrotation Yrotation Xrotation
					JOINT rForeArm
					{
						OFFSET -10.139888 0.000000 0.000000 
						CHANNELS 3 Yrotation Zrotation Xrotation
						JOINT rHand
						{
							OFFSET -8.370511 0.000000 0.000000 
							CHANNELS 3 Zrotation Yrotation Xrotation
							End Site
							{
								OFFSET -4.083176 0.000000 0.000000 
							}
						}
					}
				}
			}
		}
	}
	JOINT lThigh
	{
		OFFSET 5.308129 -1.633274 1.361059 
		CHANNELS 3 Xrotation Zrotation Yrotation
		JOINT lShin
		{
			OFFSET -2.041588 -20.007561 0.000000 
			CHANNELS 3 Xrotation Zrotation Yrotation
			JOINT lFoot
			{
				OFFSET 0.000000 -19.190928 -1.224953 
				CHANNELS 3 Xrotation Yrotation Zrotation
				End Site
				{
					OFFSET 0.000000 -2.449906 4.627600 
				}
			}
		}
	}
	JOINT rThigh
	{
		OFFSET -5.308129 -1.633274 1.361059 
		CHANNELS 3 Xrotation Zrotation Yrotation
		JOINT rShin
		{
			OFFSET 2.041588 -20.007561 0.000000 
			CHANNELS 3 Xrotation Zrotation Yrotation
			JOINT rFoot
			{
				OFFSET 0.000000 -19.190928 -1.224953 
				CHANNELS 3 Xrotation Yrotation Zrotation
				End Site
				{
					OFFSET 0.000000 -2.449906 4.627600 
				}
			}
		}
	}
}
MOTION
Frames: 9
Frame Time: 0.016667
-5.420393 46.519650 4.236554 16.813536 3.424707 -9.920067 24.808910 -9.912794 4.390909 -6.583568 -0.271693 6.474675 26.592688 -6.630499 -0.600739 -32.380657 0.160818 14.375079 7.008972 12.706924 22.862825 -69.102585 -15.079109 11.689562 -99.052635 47.493717 32.975494 -45.736805 -39.226906 21.633286 -5.938776 -6.265913 23.958178 47.895378 16.370916 101.383644 28.597599 -34.958496 24.432940 48.898975 52.713600 9.672256 -24.510229 27.192020 25.301472 54.966045 -1.097014 -2.657744 -2.791464 -13.024984 -10.824737 -33.469940 -14.020877 -1.767307 53.756622 9.470715 6.056393 -4.664430 -2.903516 13.967674 
-5.143929 46.677837 4.307085 16.829357 3.476566 -10.458518 24.808910 -9.912794 4.390909 -6.500788 -0.058216 6.513669 26.435614 -6.552379 -0.600727 -32.006332 0.056600 14.990247 6.867696 14.132021 22.724716 -69.326820 -16.266518 11.760438 -100.680275 49.207211 36.540977 -44.932926 -38.402699 20.321812 -6.782974 -6.233327 23.849916 47.506115 13.965187 102.209236 29.968544 -34.820847 23.057701 50.210308 52.511833 12.065566 -23.093163 26.738981 25.376215 51.402809 -0.570709 -2.382357 -2.142660 -14.755500 -11.196002 -32.923645 -14.138144 -1.848456 52.576851 9.306556 5.930091 -3.978310 -2.481332 14.371351 
-4.867423 46.835911 4.377629 16.833786 3.527802 -11.007313 24.808910 -9.912794 4.390909 -6.417690 0.155226 6.562530 26.277433 -6.474269 -0.589908 -31.624456 -0.047030 15.595706 6.736063 15.556317 22.591429 -69.544731 -17.452963 11.840204 -102.534470 50.855083 40.300449 -44.163593 -37.562965 19.039356 -7.626192 -6.199667 23.747131 47.095425 11.557418 103.036873 31.325932 -34.705173 21.665905 51.534000 52.259483 14.475773 -21.679518 26.307398 25.417671 47.847813 -0.050341 -2.116156 -1.502257 -16.494236 -11.540462 -32.388412 -14.246185 -1.932601 51.405457 9.169929 5.785008 -3.293382 -2.034433 14.756989 
-4.559452 46.916801 4.456185 16.803616 3.270615 -11.698839 24.808910 -9.912794 4.390909 -6.334225 0.698352 6.680260 26.219967 -5.409943 -0.510154 -31.204893 -0.046928 16.035158 6.546740 17.431234 22.426544 -70.925529 -18.353525 12.368013 -103.857216 52.471539 43.528294 -45.178696 -37.473976 19.632673 -8.303831 -6.148784 23.670029 46.623478 9.037012 104.014809 31.160938 -34.617661 17.161354 53.465961 51.757519 17.651396 -20.057566 25.912682 25.496014 44.499668 0.331355 -1.818312 -1.029233 -17.997328 -11.902634 -31.863239 -14.081190 -1.883967 50.399742 9.072248 5.656538 -2.754174 -1.697030 15.317757 
-4.251395 46.997597 4.534764 16.769789 3.014194 -12.390062 24.808910 -9.912794 4.390909 -6.248524 1.241213 6.798657 26.165392 -4.335815 -0.431411 -30.785322 -0.046826 16.464846 6.345478 19.316399 22.278278 -72.317993 -19.245560 12.918611 -105.394554 54.053642 46.953815 -46.182854 -37.377403 20.209665 -8.981425 -6.096700 23.591383 46.112488 6.522958 105.010155 31.012241 -34.512600 12.654919 55.325001 51.193192 20.773611 -18.455418 25.518267 25.576969 41.175282 0.768402 -1.569121 -0.593867 -19.524860 -12.258003 -31.336676 -13.915597 -1.852834 49.407234 8.954187 5.515506 -2.225490 -1.322682 15.835733 
-3.882779 47.007153 4.630707 16.586510 2.643029 -13.217196 24.808910 -9.912794 4.390909 -5.995077 2.006569 6.967490 25.876877 -3.017527 -0.332599 -30.625000 0.000000 16.689453 6.036576 21.055901 22.200846 -73.847496 -19.630251 13.478394 -106.487862 55.232925 49.241444 -47.689758 -37.647575 21.481440 -9.616896 -6.140250 23.504736 45.622810 4.299680 106.009750 29.899925 -34.521923 7.061463 57.732681 50.326523 24.122534 -16.707958 25.080284 25.625416 38.570324 0.797583 -1.429487 -0.798375 -19.952475 -12.086425 -30.768400 -13.768399 -1.837001 48.632366 8.847606 5.420105 -1.854463 -0.808102 16.273300 
-3.514021 47.016617 4.726626 16.413412 2.273667 -14.054156 24.808910 -9.912794 4.390909 -5.738315 2.761671 7.137523 25.583414 -1.699203 -0.244323 -30.461479 0.056062 16.904310 5.722915 22.792791 22.145069 -75.371132 -19.989122 14.062829 -107.700050 56.384548 51.630569 -49.199455 -37.887997 22.763250 -10.248671 -6.191396 23.415571 45.101006 2.087970 107.023125 28.794230 -34.447842 1.467033 60.019985 49.367233 27.363907 -14.970268 24.634302 25.676680 35.994061 0.827166 -1.303195 -1.019123 -20.387173 -11.924014 -30.188015 -13.619808 -1.839280 47.847595 8.739849 5.336423 -1.492776 -0.285434 16.720209 
-3.049842 46.964531 4.808256 16.330067 2.226929 -14.933110 24.808910 -9.912794 4.390909 -5.539486 3.419478 7.288579 24.944633 -0.996089 -0.185689 -30.479712 0.028016 17.001955 5.206576 24.146503 22.236164 -76.494270 -19.792852 14.457748 -108.467697 57.109783 52.660900 -50.169693 -38.020493 23.563978 -10.900570 -6.520609 23.258339 44.773384 0.420109 107.923294 27.143286 -34.814194 -3.121362 61.753094 48.555164 29.514467 -13.671314 23.783127 25.444080 34.432316 0.417297 -1.291795 -1.894262 -18.996891 -11.403358 -30.094028 -13.865561 -1.901260 47.396744 8.456389 5.206614 -1.183663 0.647065 16.946224 
-2.585538 46.912415 4.889839 16.245358 2.189370 -15.812448 24.808910 -9.912794 4.390909 -5.338433 4.067141 7.441175 24.297575 -0.292968 -0.136767 -30.498049 0.000000 17.099609 4.685170 25.500433 22.344513 -77.604416 -19.591591 14.843757 -109.273102 57.838062 53.715656 -51.135624 -38.146881 24.368216 -11.558275 -6.837867 23.098541 44.424992 -1.249580 108.838379 25.459736 -35.074322 -7.738024 63.403534 47.698963 31.584530 -12.372550 22.942293 25.189512 32.885887 0.017143 -1.276361 -2.784740 -17.614094 -10.880692 -29.996185 -14.090112 -1.967279 46.956581 8.163282 5.086533 -0.890937 1.584449 17.148708 
